# This file uses centimeters as units for non-parametric coordinates.

mtllib onda.mtl
g default
v 0.545958 -0.505445 -0.396662
v 0.641820 -0.505445 -0.208538
v 0.493586 -0.505445 -0.160375
v 0.419864 -0.505445 -0.305050
v 0.396662 -0.505445 -0.545959
v 0.305049 -0.505445 -0.419865
v 0.208538 -0.505445 -0.641808
v 0.160374 -0.505445 -0.493577
v -0.000000 -0.505445 -0.674841
v -0.000000 -0.505445 -0.518981
v -0.208538 -0.505445 -0.641807
v -0.160374 -0.505445 -0.493576
v -0.396662 -0.505445 -0.545959
v -0.305050 -0.505445 -0.419865
v -0.545958 -0.505445 -0.396662
v -0.419865 -0.505445 -0.305050
v -0.641807 -0.505445 -0.208538
v -0.493576 -0.505445 -0.160375
v -0.674841 -0.505445 -0.000000
v -0.518981 -0.505445 -0.000000
v -0.641807 -0.505445 0.208538
v -0.493576 -0.505445 0.160374
v -0.545958 -0.505445 0.396662
v -0.419865 -0.505445 0.305049
v -0.396662 -0.505445 0.545959
v -0.305050 -0.505445 0.419865
v -0.208538 -0.505445 0.641807
v -0.160374 -0.505445 0.493576
v -0.000000 -0.505445 0.674841
v -0.000000 -0.505445 0.518981
v 0.208538 -0.505445 0.641807
v 0.160374 -0.505445 0.493576
v 0.396662 -0.505445 0.545959
v 0.305049 -0.505445 0.419865
v 0.545958 -0.505445 0.396662
v 0.419864 -0.505445 0.305049
v 0.641807 -0.505445 0.208538
v 0.493576 -0.505445 0.160374
v 0.674841 -0.505445 -0.000000
v 0.518981 -0.505445 -0.000000
v 0.617208 -0.585719 -0.200541
v 0.525022 -0.585719 -0.381451
v 0.474659 -0.585719 -0.154225
v 0.403764 -0.585719 -0.293352
v 0.381451 -0.585720 -0.525023
v 0.293352 -0.585719 -0.403764
v 0.200541 -0.585720 -0.617197
v 0.154224 -0.585719 -0.474649
v -0.000000 -0.585719 -0.648964
v -0.000000 -0.585719 -0.499080
v -0.200541 -0.585719 -0.617196
v -0.154224 -0.585719 -0.474649
v -0.381452 -0.585719 -0.525023
v -0.293352 -0.585719 -0.403765
v -0.525023 -0.585719 -0.381452
v -0.403764 -0.585719 -0.293352
v -0.617196 -0.585719 -0.200541
v -0.474649 -0.585719 -0.154225
v -0.648963 -0.585719 -0.000000
v -0.499080 -0.585719 -0.000000
v -0.617196 -0.585719 0.200541
v -0.474649 -0.585719 0.154224
v -0.525023 -0.585719 0.381451
v -0.403764 -0.585719 0.293352
v -0.381452 -0.585720 0.525023
v -0.293352 -0.585719 0.403764
v -0.200541 -0.585720 0.617196
v -0.154224 -0.585719 0.474649
v -0.000000 -0.585719 0.648963
v -0.000000 -0.585719 0.499079
v 0.200541 -0.585719 0.617195
v 0.154224 -0.585719 0.474649
v 0.381451 -0.585719 0.525023
v 0.293352 -0.585719 0.403764
v 0.525023 -0.585719 0.381451
v 0.403764 -0.585719 0.293352
v 0.617196 -0.585719 0.200541
v 0.474649 -0.585719 0.154224
v 0.648963 -0.585719 -0.000000
v 0.499079 -0.585719 -0.000000
vt 0.626409 0.064408
vt 0.648603 0.107966
vt 0.648603 0.107966
vt 0.626409 0.064408
vt 0.591842 0.029841
vt 0.591842 0.029841
vt 0.548284 0.007647
vt 0.548284 0.007647
vt 0.500000 -0.000000
vt 0.500000 -0.000000
vt 0.451716 0.007647
vt 0.451716 0.007647
vt 0.408159 0.029841
vt 0.408159 0.029841
vt 0.373591 0.064409
vt 0.373591 0.064409
vt 0.351397 0.107966
vt 0.351397 0.107966
vt 0.343750 0.156250
vt 0.343750 0.156250
vt 0.351397 0.204534
vt 0.351397 0.204534
vt 0.373591 0.248091
vt 0.373591 0.248091
vt 0.408159 0.282659
vt 0.408159 0.282659
vt 0.451716 0.304853
vt 0.451716 0.304853
vt 0.500000 0.312500
vt 0.500000 0.312500
vt 0.548284 0.304853
vt 0.548284 0.304853
vt 0.591841 0.282659
vt 0.591841 0.282659
vt 0.626409 0.248091
vt 0.626409 0.248091
vt 0.648603 0.204534
vt 0.648603 0.204534
vt 0.656250 0.156250
vt 0.656250 0.156250
vt 0.626409 0.064408
vt 0.648603 0.107966
vt 0.648603 0.107966
vt 0.626409 0.064408
vt 0.591842 0.029841
vt 0.591842 0.029841
vt 0.548284 0.007647
vt 0.548284 0.007647
vt 0.500000 -0.000000
vt 0.500000 -0.000000
vt 0.451716 0.007647
vt 0.451716 0.007647
vt 0.408159 0.029841
vt 0.408159 0.029841
vt 0.373591 0.064409
vt 0.373591 0.064409
vt 0.351397 0.107966
vt 0.351397 0.107966
vt 0.343750 0.156250
vt 0.343750 0.156250
vt 0.351397 0.204534
vt 0.351397 0.204534
vt 0.373591 0.248091
vt 0.373591 0.248091
vt 0.408159 0.282659
vt 0.408159 0.282659
vt 0.451716 0.304853
vt 0.451716 0.304853
vt 0.500000 0.312500
vt 0.500000 0.312500
vt 0.548284 0.304853
vt 0.548284 0.304853
vt 0.591841 0.282659
vt 0.591841 0.282659
vt 0.626409 0.248091
vt 0.626409 0.248091
vt 0.648603 0.204534
vt 0.648603 0.204534
vt 0.656250 0.156250
vt 0.656250 0.156250
vt 0.626409 0.064408
vt 0.648603 0.107966
vt 0.648603 0.107966
vt 0.626409 0.064408
vt 0.591842 0.029841
vt 0.591842 0.029841
vt 0.548284 0.007647
vt 0.548284 0.007647
vt 0.500000 -0.000000
vt 0.500000 -0.000000
vt 0.451716 0.007647
vt 0.451716 0.007647
vt 0.408159 0.029841
vt 0.408159 0.029841
vt 0.373591 0.064409
vt 0.373591 0.064409
vt 0.351397 0.107966
vt 0.351397 0.107966
vt 0.343750 0.156250
vt 0.343750 0.156250
vt 0.351397 0.204534
vt 0.351397 0.204534
vt 0.373591 0.248091
vt 0.373591 0.248091
vt 0.408159 0.282659
vt 0.408159 0.282659
vt 0.451716 0.304853
vt 0.451716 0.304853
vt 0.500000 0.312500
vt 0.500000 0.312500
vt 0.548284 0.304853
vt 0.548284 0.304853
vt 0.591841 0.282659
vt 0.591841 0.282659
vt 0.626409 0.248091
vt 0.626409 0.248091
vt 0.648603 0.204534
vt 0.648603 0.204534
vt 0.656250 0.156250
vt 0.656250 0.156250
vn 0.000000 -1.000000 0.000000
vn 0.000000 -1.000000 0.000000
vn 0.000000 -1.000000 0.000000
vn 0.000000 -1.000000 0.000000
vn 0.000000 -1.000000 0.000001
vn 0.000000 -1.000000 0.000001
vn 0.000000 -1.000000 0.000001
vn 0.000000 -1.000000 0.000001
vn -0.000000 -1.000000 0.000001
vn -0.000000 -1.000000 0.000001
vn -0.000000 -1.000000 0.000001
vn -0.000000 -1.000000 0.000001
vn -0.000001 -1.000000 0.000000
vn -0.000001 -1.000000 0.000000
vn -0.000001 -1.000000 0.000000
vn -0.000001 -1.000000 0.000000
vn 0.000000 -1.000000 0.000000
vn 0.000000 -1.000000 0.000000
vn 0.000000 -1.000000 0.000000
vn 0.000000 -1.000000 0.000000
vn 0.000000 -1.000000 0.000000
vn 0.000000 -1.000000 0.000000
vn 0.000000 -1.000000 0.000000
vn 0.000000 -1.000000 0.000000
vn 0.000000 -1.000000 -0.000000
vn 0.000000 -1.000000 -0.000000
vn 0.000000 -1.000000 -0.000000
vn 0.000000 -1.000000 -0.000000
vn 0.000000 -1.000000 0.000000
vn 0.000000 -1.000000 0.000000
vn 0.000000 -1.000000 0.000000
vn 0.000000 -1.000000 0.000000
vn 0.000000 -1.000000 0.000000
vn 0.000000 -1.000000 0.000000
vn 0.000000 -1.000000 0.000000
vn 0.000000 -1.000000 0.000000
vn 0.000000 -1.000000 0.000000
vn 0.000000 -1.000000 0.000000
vn 0.000000 -1.000000 0.000000
vn 0.000000 -1.000000 0.000000
vn 0.000000 -1.000000 -0.000000
vn 0.000000 -1.000000 -0.000000
vn 0.000000 -1.000000 -0.000000
vn 0.000000 -1.000000 -0.000000
vn -0.000000 -1.000000 -0.000001
vn -0.000000 -1.000000 -0.000001
vn -0.000000 -1.000000 -0.000001
vn -0.000000 -1.000000 -0.000001
vn 0.000000 -1.000000 -0.000001
vn 0.000000 -1.000000 -0.000001
vn 0.000000 -1.000000 -0.000001
vn 0.000000 -1.000000 -0.000001
vn 0.000001 -1.000000 -0.000001
vn 0.000001 -1.000000 -0.000001
vn 0.000001 -1.000000 -0.000001
vn 0.000001 -1.000000 -0.000001
vn -0.000000 -1.000000 -0.000001
vn -0.000000 -1.000000 -0.000001
vn -0.000000 -1.000000 -0.000001
vn -0.000000 -1.000000 -0.000001
vn 0.000000 -1.000000 -0.000001
vn 0.000000 -1.000000 -0.000001
vn 0.000000 -1.000000 -0.000001
vn 0.000000 -1.000000 -0.000001
vn 0.000000 -1.000000 0.000000
vn 0.000000 -1.000000 0.000000
vn 0.000000 -1.000000 0.000000
vn 0.000000 -1.000000 0.000000
vn 0.000000 -1.000000 -0.000000
vn 0.000000 -1.000000 -0.000000
vn 0.000000 -1.000000 -0.000000
vn 0.000000 -1.000000 -0.000000
vn 0.000000 -1.000000 0.000000
vn 0.000000 -1.000000 0.000000
vn 0.000000 -1.000000 0.000000
vn 0.000000 -1.000000 0.000000
vn 0.000000 -1.000000 0.000000
vn 0.000000 -1.000000 0.000000
vn 0.000000 -1.000000 0.000000
vn 0.000000 -1.000000 0.000000
vn 0.000000 1.000000 0.000000
vn 0.000000 1.000000 0.000000
vn 0.000000 1.000000 0.000000
vn 0.000000 1.000000 0.000000
vn -0.000000 1.000000 -0.000001
vn -0.000000 1.000000 -0.000001
vn -0.000000 1.000000 -0.000001
vn -0.000000 1.000000 -0.000001
vn 0.000001 1.000000 -0.000001
vn 0.000001 1.000000 -0.000001
vn 0.000001 1.000000 -0.000001
vn 0.000001 1.000000 -0.000001
vn 0.000001 1.000000 -0.000000
vn 0.000001 1.000000 -0.000000
vn 0.000001 1.000000 -0.000000
vn 0.000001 1.000000 -0.000000
vn 0.000000 1.000000 0.000000
vn 0.000000 1.000000 0.000000
vn 0.000000 1.000000 0.000000
vn 0.000000 1.000000 0.000000
vn 0.000000 1.000000 -0.000000
vn 0.000000 1.000000 -0.000000
vn 0.000000 1.000000 -0.000000
vn 0.000000 1.000000 -0.000000
vn 0.000000 1.000000 0.000000
vn 0.000000 1.000000 0.000000
vn 0.000000 1.000000 0.000000
vn 0.000000 1.000000 0.000000
vn 0.000000 1.000000 0.000000
vn 0.000000 1.000000 0.000000
vn 0.000000 1.000000 0.000000
vn 0.000000 1.000000 0.000000
vn 0.000000 1.000000 0.000000
vn 0.000000 1.000000 0.000000
vn 0.000000 1.000000 0.000000
vn 0.000000 1.000000 0.000000
vn 0.000000 1.000000 -0.000000
vn 0.000000 1.000000 -0.000000
vn 0.000000 1.000000 -0.000000
vn 0.000000 1.000000 -0.000000
vn 0.000000 1.000000 0.000000
vn 0.000000 1.000000 0.000000
vn 0.000000 1.000000 0.000000
vn 0.000000 1.000000 0.000000
vn 0.000000 1.000000 0.000001
vn 0.000000 1.000000 0.000001
vn 0.000000 1.000000 0.000001
vn 0.000000 1.000000 0.000001
vn -0.000001 1.000000 0.000001
vn -0.000001 1.000000 0.000001
vn -0.000001 1.000000 0.000001
vn -0.000001 1.000000 0.000001
vn -0.000001 1.000000 0.000001
vn -0.000001 1.000000 0.000001
vn -0.000001 1.000000 0.000001
vn -0.000001 1.000000 0.000001
vn 0.000000 1.000000 0.000000
vn 0.000000 1.000000 0.000000
vn 0.000000 1.000000 0.000000
vn 0.000000 1.000000 0.000000
vn -0.000000 1.000000 0.000001
vn -0.000000 1.000000 0.000001
vn -0.000000 1.000000 0.000001
vn -0.000000 1.000000 0.000001
vn 0.000000 1.000000 0.000000
vn 0.000000 1.000000 0.000000
vn 0.000000 1.000000 0.000000
vn 0.000000 1.000000 0.000000
vn 0.000000 1.000000 0.000000
vn 0.000000 1.000000 0.000000
vn 0.000000 1.000000 0.000000
vn 0.000000 1.000000 0.000000
vn 0.000000 1.000000 -0.000000
vn 0.000000 1.000000 -0.000000
vn 0.000000 1.000000 -0.000000
vn 0.000000 1.000000 -0.000000
vn 0.000000 1.000000 0.000000
vn 0.000000 1.000000 0.000000
vn 0.000000 1.000000 0.000000
vn 0.000000 1.000000 0.000000
vn 0.769988 -0.306821 -0.559445
vn 0.905184 -0.306823 -0.294111
vn 0.905184 -0.306823 -0.294111
vn 0.769988 -0.306821 -0.559446
vn -0.923111 0.240633 0.299936
vn -0.785237 0.240631 0.570525
vn -0.785237 0.240631 0.570526
vn -0.923111 0.240633 0.299936
vn 0.559428 -0.306821 -0.770001
vn 0.559427 -0.306821 -0.770001
vn -0.570507 0.240631 0.785251
vn -0.570507 0.240631 0.785251
vn 0.294111 -0.306819 -0.905186
vn 0.294111 -0.306819 -0.905186
vn -0.299936 0.240630 0.923112
vn -0.299936 0.240630 0.923112
vn -0.000002 -0.306820 -0.951767
vn -0.000002 -0.306820 -0.951768
vn 0.000001 0.240631 0.970617
vn 0.000002 0.240631 0.970617
vn -0.294111 -0.306818 -0.905186
vn -0.294111 -0.306818 -0.905186
vn 0.299935 0.240629 0.923112
vn 0.299935 0.240629 0.923112
vn -0.559427 -0.306821 -0.770002
vn -0.559426 -0.306821 -0.770002
vn 0.570506 0.240631 0.785251
vn 0.570505 0.240631 0.785252
vn -0.770002 -0.306821 -0.559427
vn -0.770002 -0.306821 -0.559427
vn 0.785251 0.240631 0.570506
vn 0.785251 0.240631 0.570506
vn -0.905185 -0.306818 -0.294112
vn -0.905186 -0.306818 -0.294112
vn 0.923112 0.240629 0.299936
vn 0.923112 0.240629 0.299936
vn -0.951767 -0.306820 -0.000000
vn -0.951768 -0.306820 -0.000000
vn 0.970617 0.240630 -0.000000
vn 0.970617 0.240630 -0.000000
vn -0.905185 -0.306819 0.294112
vn -0.905185 -0.306819 0.294112
vn 0.923112 0.240629 -0.299937
vn 0.923112 0.240629 -0.299937
vn -0.770002 -0.306821 0.559427
vn -0.770002 -0.306821 0.559426
vn 0.785251 0.240631 -0.570506
vn 0.785252 0.240631 -0.570506
vn -0.559428 -0.306822 0.770001
vn -0.559427 -0.306821 0.770001
vn 0.570507 0.240631 -0.785251
vn 0.570507 0.240631 -0.785251
vn -0.294110 -0.306819 0.905186
vn -0.294110 -0.306820 0.905186
vn 0.299935 0.240630 -0.923112
vn 0.299935 0.240630 -0.923112
vn 0.000002 -0.306821 0.951767
vn 0.000002 -0.306821 0.951767
vn -0.000002 0.240632 -0.970617
vn -0.000002 0.240632 -0.970617
vn 0.294111 -0.306819 0.905186
vn 0.294111 -0.306819 0.905186
vn -0.299935 0.240630 -0.923112
vn -0.299935 0.240630 -0.923112
vn 0.559427 -0.306821 0.770002
vn 0.559426 -0.306821 0.770002
vn -0.570506 0.240631 -0.785251
vn -0.570505 0.240631 -0.785252
vn 0.770002 -0.306821 0.559427
vn 0.770002 -0.306821 0.559427
vn -0.785251 0.240631 -0.570506
vn -0.785251 0.240631 -0.570506
vn 0.905185 -0.306819 0.294112
vn 0.905185 -0.306819 0.294112
vn -0.923112 0.240629 -0.299937
vn -0.923112 0.240629 -0.299936
vn 0.951767 -0.306820 0.000028
vn 0.951768 -0.306820 0.000030
vn -0.970617 0.240631 -0.000029
vn -0.970617 0.240631 -0.000030
s off
g Onda
usemtl initialShadingGroup
f 42/81/1 41/82/2 43/83/3 44/84/4
f 45/85/5 42/81/6 44/84/7 46/86/8
f 47/87/9 45/85/10 46/86/11 48/88/12
f 49/89/13 47/87/14 48/88/15 50/90/16
f 51/91/17 49/89/18 50/90/19 52/92/20
f 53/93/21 51/91/22 52/92/23 54/94/24
f 55/95/25 53/93/26 54/94/27 56/96/28
f 57/97/29 55/95/30 56/96/31 58/98/32
f 59/99/33 57/97/34 58/98/35 60/100/36
f 61/101/37 59/99/38 60/100/39 62/102/40
f 63/103/41 61/101/42 62/102/43 64/104/44
f 65/105/45 63/103/46 64/104/47 66/106/48
f 67/107/49 65/105/50 66/106/51 68/108/52
f 69/109/53 67/107/54 68/108/55 70/110/56
f 71/111/57 69/109/58 70/110/59 72/112/60
f 73/113/61 71/111/62 72/112/63 74/114/64
f 75/115/65 73/113/66 74/114/67 76/116/68
f 77/117/69 75/115/70 76/116/71 78/118/72
f 79/119/73 77/117/74 78/118/75 80/120/76
f 41/82/77 79/119/78 80/120/79 43/83/80
f 1/41/81 4/44/82 3/43/83 2/42/84
f 5/45/85 6/46/86 4/44/87 1/41/88
f 7/47/89 8/48/90 6/46/91 5/45/92
f 9/49/93 10/50/94 8/48/95 7/47/96
f 11/51/97 12/52/98 10/50/99 9/49/100
f 13/53/101 14/54/102 12/52/103 11/51/104
f 15/55/105 16/56/106 14/54/107 13/53/108
f 17/57/109 18/58/110 16/56/111 15/55/112
f 19/59/113 20/60/114 18/58/115 17/57/116
f 21/61/117 22/62/118 20/60/119 19/59/120
f 23/63/121 24/64/122 22/62/123 21/61/124
f 25/65/125 26/66/126 24/64/127 23/63/128
f 27/67/129 28/68/130 26/66/131 25/65/132
f 29/69/133 30/70/134 28/68/135 27/67/136
f 31/71/137 32/72/138 30/70/139 29/69/140
f 33/73/141 34/74/142 32/72/143 31/71/144
f 35/75/145 36/76/146 34/74/147 33/73/148
f 37/77/149 38/78/150 36/76/151 35/75/152
f 39/79/153 40/80/154 38/78/155 37/77/156
f 2/42/157 3/43/158 40/80/159 39/79/160
s 1
f 1/1/161 2/2/162 41/82/163 42/81/164
s 2
f 3/3/165 4/4/166 44/84/167 43/83/168
s 1
f 5/5/169 1/1/161 42/81/164 45/85/170
s 2
f 4/4/166 6/6/171 46/86/172 44/84/167
s 1
f 7/7/173 5/5/169 45/85/170 47/87/174
s 2
f 6/6/171 8/8/175 48/88/176 46/86/172
s 1
f 9/9/177 7/7/173 47/87/174 49/89/178
s 2
f 8/8/175 10/10/179 50/90/180 48/88/176
s 1
f 11/11/181 9/9/177 49/89/178 51/91/182
s 2
f 10/10/179 12/12/183 52/92/184 50/90/180
s 1
f 13/13/185 11/11/181 51/91/182 53/93/186
s 2
f 12/12/183 14/14/187 54/94/188 52/92/184
s 1
f 15/15/189 13/13/185 53/93/186 55/95/190
s 2
f 14/14/187 16/16/191 56/96/192 54/94/188
s 1
f 17/17/193 15/15/189 55/95/190 57/97/194
s 2
f 16/16/191 18/18/195 58/98/196 56/96/192
s 1
f 19/19/197 17/17/193 57/97/194 59/99/198
s 2
f 18/18/195 20/20/199 60/100/200 58/98/196
s 1
f 21/21/201 19/19/197 59/99/198 61/101/202
s 2
f 20/20/199 22/22/203 62/102/204 60/100/200
s 1
f 23/23/205 21/21/201 61/101/202 63/103/206
s 2
f 22/22/203 24/24/207 64/104/208 62/102/204
s 1
f 25/25/209 23/23/205 63/103/206 65/105/210
s 2
f 24/24/207 26/26/211 66/106/212 64/104/208
s 1
f 27/27/213 25/25/209 65/105/210 67/107/214
s 2
f 26/26/211 28/28/215 68/108/216 66/106/212
s 1
f 29/29/217 27/27/213 67/107/214 69/109/218
s 2
f 28/28/215 30/30/219 70/110/220 68/108/216
s 1
f 31/31/221 29/29/217 69/109/218 71/111/222
s 2
f 30/30/219 32/32/223 72/112/224 70/110/220
s 1
f 33/33/225 31/31/221 71/111/222 73/113/226
s 2
f 32/32/223 34/34/227 74/114/228 72/112/224
s 1
f 35/35/229 33/33/225 73/113/226 75/115/230
s 2
f 34/34/227 36/36/231 76/116/232 74/114/228
s 1
f 37/37/233 35/35/229 75/115/230 77/117/234
s 2
f 36/36/231 38/38/235 78/118/236 76/116/232
s 1
f 39/39/237 37/37/233 77/117/234 79/119/238
s 2
f 38/38/235 40/40/239 80/120/240 78/118/236
s 1
f 2/2/162 39/39/237 79/119/238 41/82/163
s 2
f 40/40/239 3/3/165 43/83/168 80/120/240
